<svg width="40" height="40" viewBox="0 0 40 40" fill="none" xmlns="http://www.w3.org/2000/svg">
<path d="M7.75 4C7.75 2.20508 9.20508 0.75 11 0.75H27C27.1212 0.75 27.2375 0.798159 27.3232 0.883885L38.1161 11.6768C38.2018 11.7625 38.25 11.8788 38.25 12V36C38.25 37.7949 36.7949 39.25 35 39.25H11C9.20507 39.25 7.75 37.7949 7.75 36V4Z" fill="white" stroke="#D0D5DD" stroke-width="1.5"/>
<path d="M27 0.5V8C27 10.2091 28.7909 12 31 12H38.5" stroke="#D0D5DD" stroke-width="1.5"/>
<rect x="2" y="18" width="24" height="16" rx="2" fill="#0A9150"/>
<path d="M6.88086 21.8906L8.21875 24.3711L9.55664 21.8906H11.2314L9.16602 25.416L11.2852 29H9.5957L8.21875 26.4707L6.8418 29H5.14258L7.2666 25.416L5.19629 21.8906H6.88086ZM16.5928 27.8574V29H13.0137V27.8574H16.5928ZM13.4873 21.8906V29H12.0225V21.8906H13.4873ZM21.1338 27.1396C21.1338 27.0127 21.1143 26.8988 21.0752 26.7979C21.0394 26.6937 20.971 26.5993 20.8701 26.5146C20.7692 26.4268 20.6276 26.3405 20.4453 26.2559C20.263 26.1712 20.027 26.0833 19.7373 25.9922C19.415 25.888 19.109 25.7708 18.8193 25.6406C18.5329 25.5104 18.279 25.359 18.0576 25.1865C17.8395 25.0107 17.667 24.8073 17.54 24.5762C17.4163 24.3451 17.3545 24.0765 17.3545 23.7705C17.3545 23.4743 17.4196 23.2057 17.5498 22.9648C17.68 22.7207 17.8623 22.5124 18.0967 22.3398C18.3311 22.1641 18.6077 22.029 18.9268 21.9346C19.249 21.8402 19.6022 21.793 19.9863 21.793C20.5104 21.793 20.9678 21.8874 21.3584 22.0762C21.749 22.265 22.0518 22.5238 22.2666 22.8525C22.4847 23.1813 22.5938 23.5573 22.5938 23.9805H21.1387C21.1387 23.7721 21.0947 23.5898 21.0068 23.4336C20.9222 23.2741 20.792 23.1488 20.6162 23.0576C20.4437 22.9665 20.2256 22.9209 19.9619 22.9209C19.708 22.9209 19.4964 22.96 19.3271 23.0381C19.1579 23.113 19.0309 23.2155 18.9463 23.3457C18.8617 23.4727 18.8193 23.6159 18.8193 23.7754C18.8193 23.8958 18.8486 24.0049 18.9072 24.1025C18.9691 24.2002 19.0602 24.2913 19.1807 24.376C19.3011 24.4606 19.4492 24.5404 19.625 24.6152C19.8008 24.6901 20.0042 24.7633 20.2354 24.835C20.6227 24.9521 20.9629 25.084 21.2559 25.2305C21.5521 25.377 21.7995 25.5413 21.998 25.7236C22.1966 25.9059 22.3464 26.1126 22.4473 26.3438C22.5482 26.5749 22.5986 26.8369 22.5986 27.1299C22.5986 27.4391 22.5384 27.7158 22.418 27.96C22.2975 28.2041 22.1234 28.4108 21.8955 28.5801C21.6676 28.7493 21.3958 28.8779 21.0801 28.9658C20.7643 29.0537 20.4111 29.0977 20.0205 29.0977C19.6689 29.0977 19.3223 29.0521 18.9805 28.9609C18.6387 28.8665 18.3278 28.7249 18.0479 28.5361C17.7712 28.3473 17.5498 28.1064 17.3838 27.8135C17.2178 27.5205 17.1348 27.1738 17.1348 26.7734H18.6045C18.6045 26.9948 18.6387 27.182 18.707 27.335C18.7754 27.488 18.8714 27.6117 18.9951 27.7061C19.1221 27.8005 19.2718 27.8688 19.4443 27.9111C19.6201 27.9535 19.8122 27.9746 20.0205 27.9746C20.2744 27.9746 20.4827 27.9388 20.6455 27.8672C20.8115 27.7956 20.9336 27.6963 21.0117 27.5693C21.0931 27.4424 21.1338 27.2992 21.1338 27.1396Z" fill="white"/>
</svg>
