<svg width="27" height="27" viewBox="0 0 41 41" fill="none" xmlns="http://www.w3.org/2000/svg">
<g clip-path="url(#clip0_201_2)">
<path d="M20.082 39.8999C30.8516 39.8999 39.582 31.1695 39.582 20.3999C39.582 9.63035 30.8516 0.899902 20.082 0.899902C9.31245 0.899902 0.582001 9.63035 0.582001 20.3999C0.582001 31.1695 9.31245 39.8999 20.082 39.8999Z" stroke="black"/>
<path d="M20.389 10.3999C15.1259 10.3999 10.9153 14.6105 10.9153 19.8738V27.2424C10.9153 28.08 11.2481 28.8832 11.8403 29.4754C12.4325 30.0677 13.2357 30.4004 14.0732 30.4004H17.2311V21.9791H13.0206V19.8738C13.0206 17.9195 13.7969 16.0453 15.1788 14.6634C16.5606 13.2815 18.4348 12.5052 20.389 12.5052C22.3433 12.5052 24.2174 13.2815 25.5993 14.6634C26.9811 16.0453 27.7574 17.9195 27.7574 19.8738V21.9791H23.5469V30.4004H26.7048C27.5423 30.4004 28.3456 30.0677 28.9378 29.4754C29.53 28.8832 29.8627 28.08 29.8627 27.2424V19.8738C29.8627 14.6105 25.6206 10.3999 20.389 10.3999Z" fill="black"/>
<path d="M20.389 10.3999C15.1259 10.3999 10.9153 14.6105 10.9153 19.8738V27.2424C10.9153 28.08 11.2481 28.8832 11.8403 29.4754C12.4325 30.0677 13.2357 30.4004 14.0732 30.4004H17.2311V21.9791H13.0206V19.8738C13.0206 17.9195 13.7969 16.0453 15.1788 14.6634C16.5606 13.2815 18.4348 12.5052 20.389 12.5052C22.3433 12.5052 24.2174 13.2815 25.5993 14.6634C26.9811 16.0453 27.7574 17.9195 27.7574 19.8738V21.9791H23.5469V30.4004H26.7048C27.5423 30.4004 28.3456 30.0677 28.9378 29.4754C29.53 28.8832 29.8627 28.08 29.8627 27.2424V19.8738C29.8627 14.6105 25.6206 10.3999 20.389 10.3999Z" fill="black"/>
</g>
<defs>
<clipPath id="clip0_201_2">
<rect width="41" height="41" fill="white"/>
</clipPath>
</defs>
</svg>
