<svg width="21" height="20" viewBox="0 0 21 20" fill="none" xmlns="http://www.w3.org/2000/svg">
<path d="M11.4012 4.00685C10.8721 3.91065 10.3267 3.90918 9.79699 4.00254C9.26725 4.09589 8.76595 4.28179 8.32143 4.54738C7.42333 5.08398 6.8186 5.90692 6.61353 6.82048C6.54948 7.10582 6.29614 7.30859 6.00371 7.30859C5.12096 7.30859 4.27964 7.64428 3.66354 8.23359C3.04838 8.82201 2.70825 9.61398 2.70825 10.4336C2.70825 11.2532 3.04838 12.0452 3.66354 12.6336C4.27964 13.2229 5.12096 13.5586 6.00371 13.5586C6.34888 13.5586 6.62871 13.8384 6.62871 14.1836C6.62871 14.5288 6.34888 14.8086 6.00371 14.8086C4.80692 14.8086 3.65387 14.3541 2.79951 13.5369C1.94421 12.7188 1.45825 11.6031 1.45825 10.4336C1.45825 9.26408 1.94421 8.1484 2.79951 7.33029C3.53911 6.62285 4.50256 6.18723 5.52445 6.08297C5.89059 5.00671 6.65629 4.08615 7.6803 3.47433C8.25894 3.1286 8.90457 2.89054 9.58005 2.77151C10.2555 2.65247 10.9501 2.65433 11.6248 2.77701C12.2995 2.89969 12.9436 3.14124 13.5201 3.49014C14.0966 3.83909 14.5955 4.28948 14.9856 4.81836C15.3759 5.34744 15.6492 5.94428 15.7865 6.57539C15.8691 6.95468 15.9012 7.34074 15.883 7.72526H16.0037C16.943 7.72526 17.8439 8.0984 18.508 8.76259C19.1722 9.42678 19.5454 10.3276 19.5454 11.2669C19.5454 12.2062 19.1722 13.1071 18.508 13.7713C17.8439 14.4355 16.943 14.8086 16.0037 14.8086H15.1704C14.8252 14.8086 14.5454 14.5288 14.5454 14.1836C14.5454 13.8384 14.8252 13.5586 15.1704 13.5586H16.0037C16.6115 13.5586 17.1944 13.3172 17.6242 12.8874C18.0539 12.4576 18.2954 11.8747 18.2954 11.2669C18.2954 10.6591 18.0539 10.0762 17.6242 9.64647C17.1944 9.2167 16.6115 8.97526 16.0037 8.97526H15.1704C14.9806 8.97526 14.801 8.889 14.6824 8.74082C14.5638 8.59263 14.519 8.39858 14.5605 8.21337C14.6622 7.76043 14.6638 7.29454 14.5651 6.84113C14.4664 6.38755 14.2687 5.95214 13.9797 5.56037C13.6906 5.1684 13.3154 4.82738 12.8728 4.55952C12.4302 4.29161 11.9302 4.10304 11.4012 4.00685Z" fill="white"/>
<path d="M10.4084 8.60585C10.4821 8.63635 10.5512 8.68157 10.6111 8.74149L13.1111 11.2415C13.3552 11.4856 13.3552 11.8813 13.1111 12.1254C12.8671 12.3694 12.4713 12.3694 12.2272 12.1254L10.7942 10.6923V16.6834C10.7942 17.0286 10.5144 17.3084 10.1692 17.3084C9.82401 17.3084 9.54419 17.0286 9.54419 16.6834V10.6923L8.11113 12.1254C7.86705 12.3694 7.47133 12.3694 7.22725 12.1254C6.98317 11.8813 6.98317 11.4856 7.22725 11.2415L9.72725 8.74149C9.78717 8.68157 9.85623 8.63635 9.92995 8.60585C10.0036 8.5753 10.0844 8.55843 10.1692 8.55843C10.2539 8.55843 10.3347 8.5753 10.4084 8.60585Z" fill="white"/>
</svg>
